<?xml version="1.0" encoding="utf-8"?>
<!-- Generator: Adobe Illustrator 21.1.0, SVG Export Plug-In . SVG Version: 6.00 Build 0)  -->
<svg version="1.1" id="Chat" xmlns="http://www.w3.org/2000/svg" xmlns:xlink="http://www.w3.org/1999/xlink" x="0px" y="0px"
	 viewBox="0 0 20 20" style="enable-background:new 0 0 20 20;" xml:space="preserve">
<style type="text/css">
	.st0{fill:#F9F7F7;}
</style>
<path class="st0" d="M5.8,12.2V6H2C0.9,6,0,6.9,0,8v6c0,1.1,0.9,2,2,2h1v3l3-3h5c1.1,0,2-0.9,2-2v-1.8c-0.1,0-0.1,0-0.2,0L5.8,12.2
	L5.8,12.2z M18,1H9C7.9,1,7,1.9,7,3v8h7l3,3v-3h1c1.1,0,2-0.9,2-2V3C20,1.9,19.1,1,18,1z"/>
</svg>
