<?xml version="1.0" encoding="utf-8"?>
<!-- Generator: Adobe Illustrator 21.0.0, SVG Export Plug-In . SVG Version: 6.00 Build 0)  -->
<svg version="1.1" id="Documents" xmlns="http://www.w3.org/2000/svg" xmlns:xlink="http://www.w3.org/1999/xlink" x="0px" y="0px"
	 viewBox="0 0 20 20" style="enable-background:new 0 0 20 20;" xml:space="preserve">
<style type="text/css">
	.st0{fill:#FFFFFF;}
</style>
<path class="st0" d="M19.4,7.4l-7.4-2l-1.3-4.9c-0.1-0.4-0.5-0.6-1-0.5L0.6,2.5C0.2,2.6-0.1,3,0,3.4l3.2,12.1c0.1,0.4,0.5,0.6,1,0.5
	l3.6-1l-0.5,1.8c-0.1,0.4,0.1,0.8,0.6,0.9L16,20c0.4,0.1,0.9-0.1,1-0.5l3-11.1C20.1,8,19.8,7.5,19.4,7.4z M1.6,3.6l7.8-2.1l2.9,10.8
	l-7.8,2.1L1.6,3.6z M15.7,18.5l-6.8-1.9l0.5-2l3.9-1c0.4-0.1,0.7-0.5,0.6-0.9L12.4,7l5.9,1.6L15.7,18.5z"/>
</svg>
