<?xml version="1.0" encoding="utf-8"?>
<!-- Generator: Adobe Illustrator 21.0.0, SVG Export Plug-In . SVG Version: 6.00 Build 0)  -->
<svg version="1.1" id="Drive" xmlns="http://www.w3.org/2000/svg" xmlns:xlink="http://www.w3.org/1999/xlink" x="0px" y="0px"
	 viewBox="0 0 20 20" style="enable-background:new 0 0 20 20;" xml:space="preserve">
<style type="text/css">
	.st0{fill:#F4F2F2;}
</style>
<path class="st0" d="M19.4,9.4C18.6,4.4,16.6,3,15.5,3c-1.6,0-2.1,1.2-5.5,1.3C6.5,4.2,6.1,3,4.5,3c-1,0-3,1.5-3.9,6.4
	c-0.5,2.8-1,7,0.3,7.5c1.6,0.6,2.2-0.9,3.9-2.3c1.8-1.3,2.7-1.7,5.2-1.7s3.4,0.3,5.2,1.7c1.8,1.3,2.3,2.9,3.9,2.3
	C20.5,16.4,19.9,12.2,19.4,9.4z M6,10c-1.1,0-2-0.9-2-2c0-1.1,0.9-2,2-2s2,0.9,2,2C8,9.1,7.1,10,6,10z M13,10c-0.6,0-1-0.4-1-1
	s0.4-1,1-1c0.6,0,1,0.4,1,1S13.6,10,13,10z M15,8c-0.6,0-1-0.4-1-1s0.4-1,1-1c0.6,0,1,0.4,1,1S15.6,8,15,8z"/>
</svg>
