<?xml version="1.0" encoding="utf-8"?>
<!-- Generator: Adobe Illustrator 21.0.0, SVG Export Plug-In . SVG Version: 6.00 Build 0)  -->
<svg version="1.1" id="Laptop" xmlns="http://www.w3.org/2000/svg" xmlns:xlink="http://www.w3.org/1999/xlink" x="0px" y="0px"
	 viewBox="0 0 20 20" style="enable-background:new 0 0 20 20;" xml:space="preserve">
<style type="text/css">
	.st0{fill:#FFFFFF;}
</style>
<path class="st0" d="M19.8,15.6C19.5,15.3,18,13,18,13V4c0-1.1-0.9-2-2-2H4C2.9,2,2,2.9,2,4v9c0,0-1.5,2.3-1.8,2.6
	C0,16,0,16.2,0,16.5V17c0,0.5,0.5,1,1,1h18c0.5,0,1-0.5,1-1v-0.5C20,16.2,20,16,19.8,15.6z M7,16l0.6-1h4.8l0.6,1H7z M16,12H4V4h12
	V12z"/>
</svg>
