<?xml version="1.0" encoding="utf-8"?>
<!-- Generator: Adobe Illustrator 21.0.0, SVG Export Plug-In . SVG Version: 6.00 Build 0)  -->
<svg version="1.1" id="News" xmlns="http://www.w3.org/2000/svg" xmlns:xlink="http://www.w3.org/1999/xlink" x="0px" y="0px"
	 viewBox="0 0 20 20" style="enable-background:new 0 0 20 20;" xml:space="preserve">
<style type="text/css">
	.st0{fill:#FFFFFF;}
</style>
<path class="st0" d="M14,5h-4v2h4V5z M14,8h-4v1h4V8z M9,5H6v4h3V5z M9,11h5v-1H9V11z M12,13h2v-1h-2V13z M14,14H6v1h8V14z M11,12H6
	v1h5V12z M8,10H6v1h2V10z M17,1H3C2.4,1,2,1.4,2,2v16c0,0.6,0.4,1,1,1h14c0.6,0,1-0.4,1-1V2C18,1.4,17.6,1,17,1z M16,17H4V3h12V17z"
	/>
</svg>
