<?xml version="1.0" encoding="utf-8"?>
<!-- Generator: Adobe Illustrator 21.0.0, SVG Export Plug-In . SVG Version: 6.00 Build 0)  -->
<svg version="1.1" id="Sound_mix" xmlns="http://www.w3.org/2000/svg" xmlns:xlink="http://www.w3.org/1999/xlink" x="0px" y="0px"
	 viewBox="0 0 20 20" style="enable-background:new 0 0 20 20;" xml:space="preserve">
<style type="text/css">
	.st0{fill:#FFFFFF;}
</style>
<path class="st0" d="M5,1.6C5,1,4.6,1,4,1C3.4,1,3,1,3,1.6V10h2V1.6z M3,18.4C3,19,3.4,19,4,19c0.6,0,1,0,1-0.6V15H3V18.4z M6.4,11
	H1.6C1,11,1,11.4,1,12v1c0,0.6,0,1,0.6,1h4.8C6.9,14,7,13.6,7,13v-1C7,11.4,6.9,11,6.4,11z M18.4,12h-4.8C13,12,13,12.4,13,13v1
	c0,0.6,0,1,0.6,1h4.8c0.6,0,0.6-0.4,0.6-1v-1C19,12.4,19,12,18.4,12z M13,7c0-0.6-0.1-1-0.6-1H7.6C7,6,7,6.4,7,7v1c0,0.6,0,1,0.6,1
	h4.8C12.9,9,13,8.6,13,8V7z M11,1.6C11,1,10.6,1,10,1C9.4,1,9,1,9,1.6V5h2V1.6z M9,18.4C9,19,9.4,19,10,19c0.6,0,1,0,1-0.6V10H9
	V18.4z M17,1.6C17,1,16.6,1,16,1c-0.6,0-1,0-1,0.6V11h2V1.6z M15,18.4c0,0.6,0.4,0.6,1,0.6c0.6,0,1,0,1-0.6V16h-2V18.4z"/>
</svg>
