<?xml version="1.0" encoding="utf-8"?>
<!-- Generator: Adobe Illustrator 21.0.0, SVG Export Plug-In . SVG Version: 6.00 Build 0)  -->
<svg version="1.1" id="V-card" xmlns="http://www.w3.org/2000/svg" xmlns:xlink="http://www.w3.org/1999/xlink" x="0px" y="0px"
	 viewBox="0 0 20 20" style="enable-background:new 0 0 20 20;" xml:space="preserve">
<style type="text/css">
	.st0{fill:#F9F7F7;}
</style>
<path class="st0" d="M19,3H1C0.4,3,0,3.4,0,4v12c0,0.6,0.4,1,1,1h18c0.6,0,1-0.4,1-1V4C20,3.4,19.6,3,19,3z M13,7h4v1h-4V7z
	 M11,14.8c-0.1-0.1-0.3-0.2-0.5-0.3c-1.2-0.5-3-1.3-3-2.2c0-0.6,0.4-0.4,0.5-1.4c0.1-0.4,0.4,0,0.4-1c0-0.4-0.2-0.5-0.2-0.5
	s0.1-0.6,0.1-1c0-0.5-0.2-1.8-1.3-2.1C7,6.2,6.8,6.3,7.4,6C6.2,5.9,5.9,6.6,5.2,7.1C4.6,7.5,4.5,8.2,4.5,8.5c0,0.4,0.1,1,0.1,1
	S4.5,9.6,4.5,10c0.1,1,0.4,0.5,0.4,1c0.2,1,0.5,0.8,0.5,1.4c0,0.9-1.8,1.7-3,2.2c-0.2,0.1-0.3,0.2-0.5,0.3V5h9V14.8z M18,11h-5v-1h5
	V11z"/>
</svg>
